<?xml version="1.0" encoding="UTF-8"?>
<svg width="300px" height="300px" viewBox="0 0 300 300" version="1.1" xmlns="http://www.w3.org/2000/svg" xmlns:xlink="http://www.w3.org/1999/xlink">
    <title>爱星物联logo300*300</title>
    <defs>
        <linearGradient x1="50%" y1="0%" x2="50%" y2="100%" id="linearGradient-1">
            <stop stop-color="#009AFF" offset="0%"></stop>
            <stop stop-color="#0055FF" offset="100%"></stop>
        </linearGradient>
    </defs>
    <g id="公版APP20231127" stroke="none" stroke-width="1" fill="none" fill-rule="evenodd">
        <g id="编组-2备份-2" transform="translate(-0.000000, 0.000000)">
            <rect id="矩形备份-4" fill="url(#linearGradient-1)" x="0" y="0" width="300" height="300" rx="36"></rect>
            <path d="M257.02525,96.7290437 C263.388083,103.091877 267.69342,110.73388 269.941785,118.829484 C274.703953,135.810731 270.398766,154.794377 257.02525,168.150862 L185.412227,239.671248 L178.657184,246.429374 C178.019017,247.127032 177.362314,247.813798 176.687074,248.489038 L149.938,275.238111 L149.892,275.191248 L149.847045,275.238111 L123.097972,248.489038 C122.423055,247.814121 121.766658,247.127691 121.128779,246.430377 L42.8052732,168.105384 C23.0826828,148.382794 23.0623218,116.426518 42.7597957,96.7290437 C62.4572696,77.0315698 94.4135458,77.0519308 114.136136,96.7745213 L176.630227,159.268612 C191.212104,173.850489 197.178008,193.782273 194.523904,212.72875 L248.063415,159.189026 C257.312516,149.939925 260.784313,137.103526 258.475943,125.170564 L258.457033,125.16524 C245.405051,121.35981 231.000844,124.795506 221.045156,134.738515 L190.781768,164.962639 C188.547291,161.396224 185.970603,158.005771 183.063376,154.839474 L212.117429,125.822158 C223.229708,114.72403 238.232061,109.878909 252.740927,111.286795 C251.402021,109.300429 249.85434,107.413589 248.097523,105.656771 C233.324417,90.8836656 209.35721,90.8989363 194.565267,105.690879 L164.284227,135.970248 L155.368227,127.054248 L185.648909,96.7745213 C205.3715,77.0519308 237.327776,77.0315698 257.02525,96.7290437 Z M176.235347,179.491005 L158.551066,197.153021 C142.651601,213.032237 139.333528,237.279957 149.716712,256.620966 L150.023723,257.18268 L169.513578,237.717811 C184.212262,221.480405 186.450239,197.969876 176.235347,179.491005 Z M149.892,150.363248 L132.071176,168.18497 L131.485409,168.780293 L130.917145,169.37675 C112.857283,188.639452 112.714321,218.583874 130.501791,237.970537 L131.426,238.892248 L131.375498,238.346927 C129.804676,220.422521 135.887423,201.955085 149.623338,188.236663 L168.6937,169.191865 C168.563268,169.054118 168.431914,168.916925 168.299636,168.780293 L167.713869,168.18497 L149.892,150.363248 Z M51.6875229,105.656771 C36.9144175,120.429876 36.9296883,144.397084 51.7216311,159.189026 L105.261142,212.72875 C102.607037,193.782273 108.572942,173.850489 123.154819,159.268612 L140.976,141.447248 L105.219778,105.690879 C90.4278355,90.8989363 66.4606284,90.8836656 51.6875229,105.656771 Z M149.719443,91.4176895 C153.205938,91.4176895 156.0323,94.2404523 156.0323,97.7225066 C156.0323,101.204561 153.205938,104.027324 149.719443,104.027324 C146.232949,104.027324 143.406587,101.204561 143.406587,97.7225066 C143.406587,94.2404523 146.232949,91.4176895 149.719443,91.4176895 Z M149.719443,56.7411953 C163.316771,56.7411953 174.339584,67.7499701 174.339584,81.3299821 C174.339584,84.463831 171.795858,87.0043175 168.658013,87.0043175 C165.520168,87.0043175 162.976442,84.463831 162.976442,81.3299821 C162.976442,74.017668 157.041081,68.0898661 149.719443,68.0898661 C142.517832,68.0898661 136.657419,73.8249069 136.46721,80.9714963 L136.462445,81.3299821 C136.462445,84.463831 133.918719,87.0043175 130.780874,87.0043175 C127.643029,87.0043175 125.099303,84.463831 125.099303,81.3299821 C125.099303,67.7499701 136.122115,56.7411953 149.719443,56.7411953 Z M149.088158,29 C174.190917,29 194.540724,49.323892 194.540724,74.3946833 C194.540724,77.5285322 191.996998,80.0690187 188.859154,80.0690187 C185.721309,80.0690187 183.177583,77.5285322 183.177583,74.3946833 C183.177583,55.5915898 167.915227,40.3486708 149.088158,40.3486708 C130.261088,40.3486708 114.998733,55.5915898 114.998733,74.3946833 C114.998733,77.5285322 112.455007,80.0690187 109.317162,80.0690187 C106.179317,80.0690187 103.635591,77.5285322 103.635591,74.3946833 C103.635591,49.323892 123.985398,29 149.088158,29 Z" id="形状结合" fill="#FFFFFF" fill-rule="nonzero"></path>
        </g>
    </g>
</svg>